 http://desibbrg.org/images/66952052392581364616.gif 
http://desibbrg.org/images/50103775576814531961.jpg 
http://desibbrg.org/images/07250906367208431566.jpg 
http://desibbrg.org/images/88842990377459906697.jpg 
http://desibbrg.org/images/53041102205141310259.jpg 
http://desibbrg.org/images/82999881816049707111.jpg

Media Info - 
Video
ID : 1
Format : AVC
Format/Info : Advanced Video Codec
Format profile : High@L3.0
Format settings, CABAC : Yes
Format settings, ReFrames : 4 frames
Codec ID : V_MPEG4/ISO/AVC
Duration : 1h 52mn
Bit rate : 1 540 Kbps
Width : 720 pixels
Height : 336 pixels
Display aspect ratio : 2.143
Frame rate mode : Constant
Frame rate : 25.000 fps
Color space : YUV
Chroma subsampling : 4:2:0
Bit depth : 8 bits
Scan type : Progressive
Bits/(Pixel*Frame) : 0.255
Stream size : 1.18 GiB (81%)
Language : English
Default : Yes
Forced : No

Audio
ID : 2
Format : AC-3
Format/Info : Audio Coding 3
Mode extension : CM (complete main)
Format settings, Endianness : Big
Codec ID : A_AC3
Duration : 1h 52mn
Bit rate mode : Constant
Bit rate : 320 Kbps
Channel(s) : 2 channels
Channel positions : Front: L R
Sampling rate : 48.0 KHz
Bit depth : 16 bits
Compression mode : Lossy
Delay relative to video : 12ms
Stream size : 258 MiB (17%)
Default : Yes
Forced : No

Ripper : Master Mind

Seeding 24x7... Extreme Seeding...


Enjoy!
